<?xml version="1.0" standalone="no"?><!DOCTYPE svg PUBLIC "-//W3C//DTD SVG 1.1//EN" "http://www.w3.org/Graphics/SVG/1.1/DTD/svg11.dtd"><svg t="1611820571741" class="icon" viewBox="0 0 1024 1024" version="1.1" xmlns="http://www.w3.org/2000/svg" p-id="17129" xmlns:xlink="http://www.w3.org/1999/xlink" width="200" height="200"><defs><style type="text/css"></style></defs><path d="M337.18435 41.737992C382.31908 9.771436 439.691371 0.791021 494.364884 0c30.849821 0.604898 63.095561 4.699596 89.897214 20.75267 9.911028 5.72327 17.960831 14.052256 24.288999 23.358386 26.057164 3.908575 52.160858 12.982051 71.750262 30.663697 28.569819 25.452265 41.737992 62.955969 45.553505 99.57559 6.514291 61.60658-6.048984 123.399282-24.242468 182.167492 14.610624 11.074295 21.962466 29.546962 20.101241 47.368201-1.954287 20.287363-6.281638 41.226155-18.146954 58.395965a42.808197 42.808197 0 0 1-27.313491 17.960831 255.034489 255.034489 0 0 1-30.431045 88.315172c-7.351843 12.88899-15.727359 25.684918-27.96492 34.665334-0.093061 35.363293-1.628573 70.91271 2.605717 106.089881 9.026946 25.684918 32.24574 43.273504 55.23188 56.906984 68.865361 38.155132 148.944609 54.44086 214.599355 98.644976 33.269414 21.636752 62.164948 51.090653 77.566593 87.477621 10.05062 22.520834 14.750216 46.902895 16.657972 71.284955-328.134139 0.093061-656.221748 0-984.355887 0.04653 2.326532-37.96901 13.959195-75.93802 37.22452-106.78784 18.053892-24.242468 42.575544-43.226973 68.306993-59.233516 59.326578-35.735539 127.680102-53.138002 189.751988-83.569047 28.383696-14.843277 58.814741-33.641659 69.935566-64.770663 4.28082-35.177171 2.791839-70.726587 2.791839-106.089881-13.959195-10.143682-22.986141-24.893897-31.315127-39.41146a247.356932 247.356932 0 0 1-28.476758-83.522516c-16.285727-2.83837-28.057982-15.680829-34.200027-29.965738a142.709502 142.709502 0 0 1-11.49307-49.182896c-0.930613-16.983687 6.514291-34.153497 20.333894-44.669423-13.168174-51.323306-22.800018-104.135593-20.613078-157.273595 1.395919-32.804108 7.584496-65.93393 22.288181-95.713546A163.136457 163.136457 0 0 1 337.18435 41.737992z" p-id="17130" fill="#a4579d"></path></svg>