<?xml version="1.0" standalone="no"?><!DOCTYPE svg PUBLIC "-//W3C//DTD SVG 1.1//EN" "http://www.w3.org/Graphics/SVG/1.1/DTD/svg11.dtd"><svg t="1611820778716" class="icon" viewBox="0 0 1092 1024" version="1.1" xmlns="http://www.w3.org/2000/svg" p-id="18279" xmlns:xlink="http://www.w3.org/1999/xlink" width="213.28125" height="200"><defs><style type="text/css"></style></defs><path d="M650.923 593.579v-60.007H385.98v59.87h-0.342L328.5 630.99l189.235 159.13L706.97 630.92c-4.37 180.019-46.012 206.916-46.012 206.916-94.413 91.34-143.224-47.65-143.224-47.65s-48.81 138.99-143.291 47.65c0 0-41.506-26.829-46.012-206.848L0 846.916v140.152h1036.97V848.486L650.924 593.58z" p-id="18280" fill="#3ec510"></path><path d="M764.996 563.814c20.002-56.524 31.54-84.992 31.54-153.122C796.535 183.91 671.197 0 516.573 0 362.018 0 236.68 183.91 236.68 410.692c0 68.13 11.468 96.598 31.402 153.122h496.913z" p-id="18281" fill="#3ec510"></path></svg>